<svg width="30" height="30" viewBox="0 0 30 30" fill="none" xmlns="http://www.w3.org/2000/svg">
<g clip-path="url(#clip0)">
<path d="M15 4C14.7975 4 14.6333 4.16418 14.6333 4.36667V5.83333C14.6333 6.03582 14.7975 6.2 15 6.2C15.2025 6.2 15.3667 6.03582 15.3667 5.83333V4.74246C20.9388 4.94012 25.3345 9.54888 25.2686 15.1241C25.2028 20.6993 20.6993 25.2028 15.1241 25.2686C9.54888 25.3345 4.94012 20.9388 4.74246 15.3667H5.83333C6.03582 15.3667 6.2 15.2025 6.2 15C6.2 14.7975 6.03582 14.6333 5.83333 14.6333H4.36667C4.16418 14.6333 4 14.7975 4 15C4 21.0751 8.92493 26 15 26C21.0751 26 26 21.0751 26 15C26 8.92493 21.0751 4 15 4Z" fill="#222222"/>
<path d="M19.7585 9.00647C18.7495 8.92214 17.8631 9.67195 17.7789 10.681C17.6946 11.69 18.4444 12.5765 19.4534 12.6606C19.5052 12.6651 19.556 12.6669 19.6071 12.6669C20.5594 12.6651 21.3523 11.9353 21.4327 10.9864C21.5159 9.97774 20.767 9.09205 19.7585 9.00647ZM19.5143 11.93C18.9258 11.8818 18.4804 11.3776 18.5049 10.7877C18.5296 10.1978 19.0155 9.73246 19.606 9.73354C19.6364 9.73354 19.6672 9.73354 19.6984 9.73712C20.3039 9.78779 20.7536 10.3197 20.7031 10.9252C20.6524 11.5307 20.1205 11.9804 19.515 11.93H19.5143Z" fill="#222222"/>
<path d="M15.6872 10.3628C15.2519 9.94743 14.5671 9.94743 14.1317 10.3628L11.6689 12.8262C11.3137 13.1846 11.3149 13.7629 11.6719 14.1197C12.0287 14.4765 12.607 14.4776 12.9655 14.1224L14.9087 12.1789L16.3571 13.6266C16.7095 13.9795 17.2804 13.9824 17.6363 13.6331C17.8143 13.4644 17.9165 13.2308 17.9198 12.9857C17.9232 12.7404 17.827 12.5042 17.6535 12.3308L15.6872 10.3628ZM17.1205 13.1128C17.0513 13.1778 16.9429 13.1756 16.8763 13.1081L15.169 11.3998C15.0258 11.2567 14.7938 11.2567 14.6506 11.3998L12.4473 13.6039C12.3757 13.6755 12.2595 13.6757 12.1879 13.6041C12.1163 13.5324 12.1161 13.4163 12.1877 13.3446L14.6506 10.8813C14.7938 10.7382 15.0258 10.7382 15.169 10.8813L17.1363 12.8482C17.1701 12.8818 17.1888 12.928 17.1875 12.9756C17.1853 13.0285 17.161 13.0779 17.1205 13.1117V13.1128Z" fill="#222222"/>
<path d="M15.2786 21.5948H15.2832C15.5264 21.5955 15.7595 21.4989 15.9308 21.3264L17.8709 19.3864C18.3005 18.9567 18.3005 18.2601 17.8709 17.8306L15.4084 15.3677C15.0457 15.0213 14.4747 15.0213 14.1122 15.3677C13.7543 15.7256 13.7543 16.3059 14.1122 16.6638L16.0554 18.6072L14.6339 20.0288C14.2806 20.3845 14.2774 20.958 14.6269 21.3175C14.7979 21.4942 15.0328 21.5941 15.2786 21.5948ZM15.1534 20.5501L16.8342 18.8693C16.9775 18.7261 16.9775 18.4941 16.8342 18.3509L14.631 16.1469C14.5834 16.1007 14.5642 16.0327 14.5811 15.9686C14.5977 15.9045 14.6478 15.8544 14.7119 15.8375C14.776 15.8209 14.8443 15.8399 14.8903 15.8877L17.3527 18.3501C17.496 18.4934 17.496 18.7254 17.3527 18.8686L15.4123 20.8069C15.3783 20.8413 15.3319 20.8606 15.2836 20.8604C15.2335 20.8635 15.1848 20.8429 15.152 20.8049C15.0838 20.7335 15.0843 20.6209 15.1534 20.5501Z" fill="#222222"/>
<path d="M21.2553 17.0668C21.7616 17.0668 22.1719 16.6565 22.1719 16.1502C22.1719 15.6439 21.7616 15.2335 21.2553 15.2335H19.2386V14.1335C19.2386 13.9983 19.1641 13.8739 19.0449 13.8102C18.9257 13.7464 18.781 13.7534 18.6684 13.8284L17.5684 14.5618C17.4665 14.6298 17.4053 14.7442 17.4053 14.8668V15.9668C17.4053 16.5743 17.8978 17.0668 18.5053 17.0668H21.2553ZM18.1386 15.9668V15.0631L18.5053 14.8189V15.6002C18.5053 15.8027 18.6694 15.9668 18.8719 15.9668H21.2553C21.3566 15.9668 21.4386 16.0488 21.4386 16.1502C21.4386 16.2515 21.3566 16.3335 21.2553 16.3335H18.5053C18.3028 16.3335 18.1386 16.1693 18.1386 15.9668Z" fill="#222222"/>
<path d="M14.5482 17.591C14.2637 17.306 13.9282 16.9624 13.8438 16.865C13.8281 16.8391 13.8095 16.8153 13.788 16.7938C13.6449 16.6511 13.4134 16.6511 13.2704 16.7938L9.26855 20.7963C8.91048 21.1544 8.91048 21.7348 9.26855 22.0929C9.62663 22.451 10.2071 22.451 10.5651 22.0929L14.5482 18.1093C14.6912 17.9663 14.6912 17.7341 14.5482 17.591ZM10.0466 21.5741C9.97503 21.6457 9.85884 21.6459 9.78722 21.5742C9.71543 21.5026 9.71543 21.3864 9.78704 21.3148L13.5146 17.5876C13.5878 17.6646 13.6729 17.7516 13.7711 17.8497L10.0466 21.5741Z" fill="#222222"/>
<path d="M13.4081 6.33941C13.4296 6.33941 13.4511 6.33762 13.4722 6.33404C13.6717 6.29877 13.8049 6.10845 13.7696 5.90901L13.5129 4.46472C13.4735 4.26975 13.2857 4.14192 13.09 4.17647C12.8941 4.21103 12.7614 4.39525 12.791 4.59184L13.0475 6.03666C13.0785 6.21158 13.2303 6.33923 13.4081 6.33941Z" fill="#222222"/>
<path d="M11.5203 6.51157C11.5731 6.65624 11.7106 6.75274 11.8648 6.75274C11.9076 6.75292 11.95 6.7454 11.9901 6.73036C12.1806 6.66161 12.2791 6.45124 12.2102 6.26074L11.7078 4.88252C11.6358 4.69614 11.4279 4.60161 11.2403 4.67001C11.0527 4.73822 10.9542 4.94429 11.0188 5.13317L11.5203 6.51157Z" fill="#222222"/>
<path d="M10.0994 7.24468C10.1645 7.35909 10.2857 7.42981 10.4173 7.43017C10.5489 7.43034 10.6707 7.36016 10.7362 7.24612C10.8017 7.13189 10.801 6.99152 10.7346 6.87802L10.0013 5.60775C9.8992 5.4339 9.67612 5.375 9.50156 5.4758C9.327 5.5766 9.26649 5.79932 9.36603 5.97442L10.0994 7.24468Z" fill="#222222"/>
<path d="M8.82691 8.21384C8.95707 8.36924 9.18839 8.38965 9.34397 8.25967C9.49937 8.12952 9.51978 7.89802 9.3898 7.74262L8.44557 6.61881C8.31344 6.472 8.08857 6.45624 7.93728 6.58318C7.786 6.7103 7.76254 6.93427 7.88429 7.08985L8.82691 8.21384Z" fill="#222222"/>
<path d="M7.74228 9.38997C7.89768 9.51494 8.1247 9.49256 8.25289 9.33966C8.38108 9.18694 8.36353 8.95956 8.2135 8.82815L7.0904 7.88552C6.93482 7.76055 6.70798 7.78275 6.57961 7.93565C6.45142 8.08855 6.46897 8.31575 6.61918 8.44716L7.74228 9.38997Z" fill="#222222"/>
<path d="M5.60859 10.0009L6.87868 10.7342C6.99219 10.8006 7.13255 10.8014 7.24678 10.7358C7.36082 10.6703 7.43101 10.5486 7.43083 10.417C7.43047 10.2854 7.35975 10.1642 7.24535 10.099L5.97526 9.36567C5.79998 9.26612 5.57726 9.32664 5.47646 9.5012C5.37567 9.67576 5.43457 9.89884 5.60859 10.0009Z" fill="#222222"/>
<path d="M4.88271 11.7077L6.26093 12.2094C6.30103 12.2242 6.34347 12.2318 6.38626 12.2318C6.5644 12.2318 6.71676 12.1041 6.74773 11.9286C6.7787 11.7534 6.67916 11.5811 6.51176 11.5203L5.13336 11.0188C4.94447 10.9542 4.7384 11.0526 4.67019 11.2403C4.6018 11.4279 4.69633 11.6357 4.88271 11.7077Z" fill="#222222"/>
<path d="M4.4643 13.5147L5.90859 13.7694C5.92971 13.773 5.9512 13.7748 5.97268 13.775C6.163 13.775 6.32162 13.6296 6.3381 13.44C6.35475 13.2506 6.22351 13.08 6.03624 13.047L4.59142 12.7905C4.39197 12.7554 4.20183 12.8886 4.16674 13.088C4.13165 13.2875 4.26485 13.4776 4.4643 13.5127V13.5147Z" fill="#222222"/>
</g>
<defs>
<clipPath id="clip0">
<rect width="22" height="22" fill="white" transform="translate(4 4)"/>
</clipPath>
</defs>
</svg>
